<?xml version="1.0" encoding="UTF-8"?> <svg xmlns="http://www.w3.org/2000/svg" baseProfile="tiny-ps" viewBox="0 0 68 54" width="68" height="54"> <title>noun_message_1874626-svg</title> <style> tspan { white-space:pre } .shp0 { fill: #000 } .txt1 { font-size: 5px;fill: #000;font-family: "' Helvetica Neue'" } </style> <path id="Layer" fill-rule="evenodd" class="shp0" d="M57.97 51.67C58.25 53.35 56.43 54.59 54.97 53.71L43.78 47C40.63 47.66 37.35 48 34 48C15.35 48 0 37.45 0 24C0 10.55 15.35 0 34 0C52.65 0 68 10.55 68 24C68 31.12 63.66 37.63 56.38 42.1L57.97 51.67ZM28 22C29.66 22 31 20.66 31 19C31 17.34 29.66 16 28 16C26.34 16 25 17.34 25 19C25 20.66 26.34 22 28 22ZM23.59 31.41C24.1 31.93 25.03 32.62 26.36 33.29C28.5 34.36 31.06 35 34 35C36.94 35 39.5 34.36 41.64 33.29C42.97 32.62 43.9 31.93 44.41 31.41C45.2 30.63 45.2 29.37 44.41 28.59C43.63 27.8 42.37 27.8 41.59 28.59C41.56 28.61 41.44 28.72 41.24 28.87C40.86 29.15 40.4 29.44 39.86 29.71C38.25 30.51 36.31 31 34 31C31.69 31 29.75 30.51 28.14 29.71C27.6 29.44 27.14 29.15 26.76 28.87C26.56 28.72 26.44 28.61 26.41 28.59C25.63 27.8 24.37 27.8 23.59 28.59C22.8 29.37 22.8 30.63 23.59 31.41ZM40 22C41.66 22 43 20.66 43 19C43 17.34 41.66 16 40 16C38.34 16 37 17.34 37 19C37 20.66 38.34 22 40 22Z"></path> <text id="Created by Andrejs Kirma" style="transform: matrix(1,0,0,1,0,69)"> <tspan x="0" y="0" class="txt1">Created by Andrejs Kirma </tspan> </text> <text id="from the Noun Project" style="transform: matrix(1,0,0,1,0,74)"> <tspan x="0" y="0" class="txt1">from the Noun Project </tspan> </text> </svg> 