<?xml version="1.0" encoding="UTF-8"?> <svg xmlns="http://www.w3.org/2000/svg" baseProfile="tiny-ps" viewBox="0 0 96 96" width="96" height="96"> <title>noun_integration_427492-svg</title> <style> tspan { white-space:pre } .shp0 { fill: #000 } .txt1 { font-size: 5px;fill: #000;font-family: "' Helvetica Neue'" } </style> <path id="Layer" fill-rule="evenodd" class="shp0" d="M93.1 55.5L85.9 55.5C84.9 60.6 82.9 65.3 80.1 69.5L85.2 74.6C86.4 75.8 86.4 77.9 85.2 79.1L79.1 85.2C77.9 86.4 75.8 86.4 74.6 85.2L69.5 80.1C65.3 82.9 60.6 84.9 55.5 85.9L55.5 93.1C55.5 94.9 54.1 96.3 52.3 96.3L43.6 96.3C41.8 96.3 40.4 94.9 40.4 93.1L40.4 85.9C35.3 84.9 30.6 82.9 26.4 80.1L21.3 85.2C20.1 86.4 18 86.4 16.8 85.2L10.7 79.1C9.5 77.9 9.5 75.8 10.7 74.6L15.8 69.5C13 65.3 11 60.6 10 55.5L2.8 55.5C1 55.5 -0.4 54.1 -0.4 52.3L-0.4 43.6C-0.4 41.8 1 40.4 2.8 40.4L10 40.4C11 35.3 13 30.6 15.8 26.4L10.7 21.3C9.5 20.1 9.5 18 10.7 16.8L16.8 10.7C18 9.5 20.1 9.5 21.3 10.7L26.4 15.8C30.6 13 35.3 11 40.4 10L40.4 2.8C40.4 1 41.8 -0.4 43.6 -0.4L52.3 -0.4C54.1 -0.4 55.5 1 55.5 2.8L55.5 10C60.6 11 65.3 13 69.5 15.8L74.6 10.7C75.8 9.5 77.9 9.5 79.1 10.7L85.2 16.8C86.4 18 86.4 20.1 85.2 21.3L80.1 26.4C82.9 30.6 84.9 35.3 85.9 40.4L93.1 40.4C94.9 40.4 96.3 41.8 96.3 43.6L96.3 52.3C96.3 54.1 94.9 55.5 93.1 55.5ZM64.4 40.8L58.2 34.5L43.9 48.8L37.9 42.8L31.6 49L37.6 55L43.8 61.3L50.1 55.1L64.4 40.8Z"></path> <text id="Created by Gregor Cresnar" style="transform: matrix(1,0,0,1,-2,113)"> <tspan x="0" y="0" class="txt1">Created by Gregor Cresnar </tspan> </text> <text id="from the Noun Project" style="transform: matrix(1,0,0,1,-2,118)"> <tspan x="0" y="0" class="txt1">from the Noun Project </tspan> </text> </svg> 