<?xml version="1.0" encoding="UTF-8"?> <svg xmlns="http://www.w3.org/2000/svg" baseProfile="tiny-ps" viewBox="0 0 100 91" width="100" height="91"> <title>noun_home page_3302893-svg</title> <style> tspan { white-space:pre } .shp0 { fill: #000 } .txt1 { font-size: 5px;fill: #000;font-family: "' Helvetica Neue'" } </style> <g id="Layer"> <g id="Layer"> <path id="Layer" fill-rule="evenodd" class="shp0" d="M-16.64 -63.02L116.69 -62.98C135.1 -62.98 150.02 -48.08 150.02 -29.71L149.99 103.38C149.98 121.76 135.06 136.65 116.65 136.65L-16.69 136.61C-35.1 136.61 -50.02 121.71 -50.01 103.34L-49.98 -29.75C-49.98 -48.13 -35.05 -63.02 -16.64 -63.02ZM87.52 -45.75C83.38 -45.75 80.02 -42.4 80.02 -38.27C80.02 -34.13 83.38 -30.78 87.52 -30.78C91.66 -30.78 95.02 -34.13 95.02 -38.26C95.02 -42.4 91.66 -45.75 87.52 -45.75ZM111.97 -45.74C107.82 -45.75 104.47 -42.39 104.47 -38.26C104.46 -34.13 107.82 -30.77 111.96 -30.77C116.11 -30.77 119.46 -34.12 119.47 -38.26C119.47 -42.39 116.11 -45.74 111.97 -45.74ZM-33.79 106.28C-33.79 112.88 -28.44 118.23 -21.83 118.23L121.79 118.26C128.4 118.26 133.76 112.92 133.76 106.32L133.79 -18.36L-33.76 -18.39L-33.79 106.28ZM12.28 52.61L5.21 52.61C3.1 52.61 1.2 51.35 0.4 49.42C-0.41 47.48 0.03 45.26 1.52 43.78L12.4 32.99C12.34 32.65 12.29 32.32 12.29 31.94L12.29 17.67C12.29 13.87 15.38 10.8 19.2 10.8L19.24 10.8C22.9 10.8 25.86 13.62 26.11 17.19C26.11 18.63 26.16 19.3 26.26 19.2C26.41 19.06 27.09 18.38 27.34 18.13C30.74 14.75 35.84 9.68 42.65 2.91C44.62 0.96 47.23 -0.12 50.01 -0.12C52.79 -0.12 55.41 0.96 57.37 2.92L98.48 43.8C99.96 45.28 100.41 47.51 99.61 49.44C98.8 51.37 96.9 52.63 94.79 52.63L88.61 52.63L88.6 71.36C88.6 81.95 79.86 90.57 69.12 90.57C66.26 90.57 40.73 90.56 37.85 90.56L32.48 90.56C21.53 90.56 12.27 81.76 12.28 71.34L12.28 52.61ZM50 69.75C56.07 69.76 61 64.84 61 58.78C61 52.71 56.08 47.8 50 47.79C43.93 47.79 39 52.71 39 58.77C39 64.84 43.92 69.75 50 69.75Z"></path> </g> </g> <text id="Created by Silviu Ojog" style="transform: matrix(1,0,0,0.998,-50.024,151.579)"> <tspan x="0" y="0" class="txt1">Created by Silviu Ojog </tspan> </text> <text id="from the Noun Project" style="transform: matrix(1,0,0,0.998,-50.025,156.57)"> <tspan x="0" y="0" class="txt1">from the Noun Project </tspan> </text> </svg> 